
        <svg xmlns="http://www.w3.org/2000/svg" xmlns:xlink="http://www.w3.org/1999/xlink" version="1.1" width="3181.8181818181824" 
        height="1218.1818181818182" viewBox="0 0 3181.8181818181824 1218.1818181818182">
			
			<g transform="scale(9.090909090909092) translate(10, 10)">
				<defs id="SvgjsDefs2183"></defs><g id="SvgjsG2184" featureKey="symbolContainer" transform="matrix(1,0,0,1,0,0)" fill="#fef4e8">    <rect width="110" height="114"></rect></g><g id="SvgjsG2185" featureKey="monogramFeature-0" transform="matrix(2.001143754997385,0,0,2.001143754997385,16.39794276775623,-21.02058758995293)" fill="#970707"><path d="M30.48 42.9 l-24.54 -24.9 l-3 0 l29.7 30.18 l0 -25.98 l-2.16 0 l0 20.7 z M28.5 38.1 l0 -18 l6.12 0 l0 37.74 l-1.02 0 l-0.24 -0.24 l-27.48 -27.84 l0 30.24 l6.3 0 l0 -17.7 l-2.22 -2.28 l0 17.82 l-1.92 0 l0 -22.8 l24.9 24.96 l3.84 0 l0 -42 l-10.44 0 l0 17.76 z M3.9 60 l0 -35.1 l28.74 29.16 l0 -3.18 l-30.84 -31.14 l0 40.26 l2.1 0 z"></path></g><g id="SvgjsG2186" featureKey="nameFeature-0" transform="matrix(0.6257038882318099,0,0,0.6257038882318099,128.49830986267472,40.666750859559954)" fill="#ffffff"><path d="M21.92 12 l3.32 0 l0 28 l-2.56 0 l-16.96 -21.92 l0 21.92 l-3.32 0 l0 -28 l2.56 0 l16.96 21.96 l0 -21.96 z M39.68 18.84 c4.72 0 10.68 3.6 10.68 10.8 s-5.96 10.76 -10.68 10.76 s-10.64 -3.56 -10.64 -10.76 s5.92 -10.8 10.64 -10.8 z M39.68 21.76 c-3.36 0 -7.44 2.6 -7.44 7.88 c0 5.24 4.08 7.84 7.44 7.84 c3.4 0 7.48 -2.6 7.48 -7.84 c0 -5.28 -4.08 -7.88 -7.48 -7.88 z M65.04 18.88 c0.36 0 0.68 0 1 0.08 l0 3.08 c-0.32 -0.08 -0.68 -0.08 -0.96 -0.08 c-3.96 0 -7.2 2.84 -7.76 7.52 l0 10.52 l-3.28 0 l0 -20.8 l3.28 0 l0 5.48 c0.76 -3.08 3.6 -5.8 7.72 -5.8 z M79.36000000000001 21.96 l-4.4 0 l0 13.4 c0 1.24 0.48 2 1.68 2 c1.04 0 1.8 -0.24 2.68 -0.64 l0 2.8 c-0.88 0.44 -1.92 0.72 -3.56 0.72 c-2.12 0 -4.04 -0.96 -4.04 -4.6 l0 -13.68 l-2.88 0 l0 -2.76 l2.88 0 l0 -4.88 l3.24 0 l0 4.88 l4.4 0 l0 2.76 z M93.80000000000001 18.88 c4.04 0 7.96 2.6 7.96 9.04 l0 12.08 l-3.28 0 l0 -12 c0 -4.36 -2.28 -6.24 -5.36 -6.24 c-3.72 0 -6.28 3.44 -6.8 5.96 l0 12.28 l-3.28 0 l0 -28.28 l3.28 0 l0 12.32 c0.4 -1.44 2.92 -5.16 7.48 -5.16 z M130.72000000000003 18.88 c3.76 0 7.72 2.36 7.72 9 l0 12.12 l-3.24 0 l0 -12.2 c0 -4.08 -2.16 -6.04 -5.28 -6.04 c-3.52 0 -5.6 2.92 -6.16 5.88 l0 12.36 l-3.24 0 l0 -12.2 c0 -4.08 -2.52 -6.04 -5.32 -6.04 c-3.72 0 -5.64 3.16 -6.08 5.88 l0 12.36 l-3.28 0 l0 -20.8 l3.28 0 l0 4.88 c0.2 -1.48 2.24 -5.2 6.72 -5.2 c2.76 0 6.04 1.56 7.32 5.24 c0.72 -2.16 3.24 -5.24 7.56 -5.24 z M152.08 18.84 c3.68 0 6.52 2.04 7.48 4.28 l0 -3.92 l3.28 0 l0 20.8 l-3.28 0 l0 -4 c-0.96 2.4 -3.8 4.4 -7.48 4.4 c-4.72 0 -10.44 -3.56 -10.44 -10.8 c0 -7.16 5.72 -10.76 10.44 -10.76 z M152.44 21.76 c-3.52 0 -7.6 2.6 -7.6 7.84 c0 5.28 4.08 7.88 7.6 7.88 c3.56 0 7.28 -2.52 7.28 -7.88 c0 -5.32 -3.72 -7.84 -7.28 -7.84 z M178.16 18.88 c4.04 0 7.96 2.6 7.96 9.04 l0 12.08 l-3.28 0 l0 -12 c0 -4.36 -2.28 -6.24 -5.36 -6.24 c-3.72 0 -6.28 3.44 -6.8 5.96 l0 12.28 l-3.28 0 l0 -20.8 l3.28 0 l0 4.84 c0.4 -1.44 2.92 -5.16 7.48 -5.16 z M211.44000000000003 12 c6.28 0 9.92 3.84 9.92 9.04 s-3.64 8.88 -9.92 8.88 l-5.8 0 l0 10.08 l-3.32 0 l0 -28 l9.12 0 z M211.36 26.96 c4.04 0 6.68 -2.08 6.68 -5.92 c0 -3.88 -2.64 -5.92 -6.68 -5.92 l-5.72 0 l0 11.84 l5.72 0 z M234.8 18.84 c4.72 0 10.68 3.6 10.68 10.8 s-5.96 10.76 -10.68 10.76 s-10.64 -3.56 -10.64 -10.76 s5.92 -10.8 10.64 -10.8 z M234.8 21.76 c-3.36 0 -7.44 2.6 -7.44 7.88 c0 5.24 4.08 7.84 7.44 7.84 c3.4 0 7.48 -2.6 7.48 -7.84 c0 -5.28 -4.08 -7.88 -7.48 -7.88 z M279.8 19.16 l3.24 0 l-7.96 20.84 l-2.84 0 l-6.76 -17.08 l-6.76 17.08 l-2.84 0 l-8 -20.84 l3.28 0 l6.2 16.56 l6.64 -16.56 l2.96 0 l6.64 16.56 z M296.08000000000004 18.84 c4.72 0 11.04 3.6 10.2 11.96 l-17.56 0 c0.52 4.56 4.08 6.8 7.84 6.8 c2.88 0 4.72 -0.8 6.28 -2.32 l1.92 1.76 c-1.88 2.24 -4.6 3.36 -8.24 3.36 c-5.36 0 -11.08 -3.6 -11.08 -10.76 c0 -7.2 5.92 -10.8 10.64 -10.8 z M296.08000000000004 21.68 c-3.08 0 -6.76 2.2 -7.36 6.68 l14.68 0 c-0.4 -4.48 -4.2 -6.68 -7.32 -6.68 z M321.03999999999996 18.88 c0.36 0 0.68 0 1 0.08 l0 3.08 c-0.32 -0.08 -0.68 -0.08 -0.96 -0.08 c-3.96 0 -7.2 2.84 -7.76 7.52 l0 10.52 l-3.28 0 l0 -20.8 l3.28 0 l0 5.48 c0.76 -3.08 3.6 -5.8 7.72 -5.8 z"></path></g>
			</g>
		</svg>
	